<svg xmlns="http://www.w3.org/2000/svg" viewBox="0 0 24 34.67" aria-hidden="true">
  <style>
    .outline { fill: white; }
    .fill { fill: #FF5F05; }
  </style>
  <path class="outline" d="M24 9.33V0H0v9.33h5.33v16H0v9.33h24v-9.33h-5.33v-16H24zm-5.33 17.34h4v6.67H1.33v-6.67h4c.74 0 1.33-.6 1.33-1.33v-16C6.67 8.6 6.07 8 5.33 8h-4V1.33h21.33V8h-4c-.74 0-1.33.6-1.33 1.33v16c0 .74.6 1.34 1.34 1.34z"/>
  <path class="fill" d="M18.67 8h4V1.33H1.33V8h4c.74 0 1.33.6 1.33 1.33v16c0 .74-.6 1.33-1.33 1.33h-4v6.67h21.33v-6.67h-4c-.74 0-1.33-.6-1.33-1.33v-16c0-.73.6-1.33 1.34-1.33z"/>
</svg>